<?xml version="1.0" encoding="UTF-8" standalone="no"?>
<svg
   xmlns:dc="http://purl.org/dc/elements/1.1/"
   xmlns:cc="http://creativecommons.org/ns#"
   xmlns:rdf="http://www.w3.org/1999/02/22-rdf-syntax-ns#"
   xmlns:svg="http://www.w3.org/2000/svg"
   xmlns="http://www.w3.org/2000/svg"
   xmlns:xlink="http://www.w3.org/1999/xlink"
   xmlns:sodipodi="http://sodipodi.sourceforge.net/DTD/sodipodi-0.dtd"
   xmlns:inkscape="http://www.inkscape.org/namespaces/inkscape"
   sodipodi:docname="icon4.svg"
   inkscape:version="1.0 (4035a4fb49, 2020-05-01)"
   id="svg2416"
   version="1.1"
   viewBox="0 0 85.400948 85.400948"
   height="85.400948mm"
   width="85.400948mm">
  <defs
     id="defs2410">
    <linearGradient
       inkscape:collect="always"
       xlink:href="#linearGradient2258"
       id="linearGradient2294"
       x1="443.01935"
       y1="368.31131"
       x2="492.10165"
       y2="304.51965"
       gradientUnits="userSpaceOnUse"
       gradientTransform="matrix(0.26458333,0,0,0.26458333,-12.079421,-34.189894)" />
    <linearGradient
       inkscape:collect="always"
       id="linearGradient2258">
      <stop
         style="stop-color:#ca5f7a;stop-opacity:1"
         offset="0"
         id="stop2254" />
      <stop
         style="stop-color:#ecc4ce;stop-opacity:1"
         offset="1"
         id="stop2256" />
    </linearGradient>
  </defs>
  <sodipodi:namedview
     inkscape:window-maximized="0"
     inkscape:window-y="0"
     inkscape:window-x="1673"
     inkscape:window-height="1018"
     inkscape:window-width="958"
     fit-margin-bottom="0"
     fit-margin-right="0"
     fit-margin-left="0"
     fit-margin-top="0"
     showgrid="false"
     inkscape:document-rotation="0"
     inkscape:current-layer="layer1"
     inkscape:document-units="mm"
     inkscape:cy="639.45441"
     inkscape:cx="-101.25628"
     inkscape:zoom="0.15670455"
     inkscape:pageshadow="2"
     inkscape:pageopacity="0.0"
     borderopacity="1.0"
     bordercolor="#666666"
     pagecolor="#ffffff"
     id="base" />
  <metadata
     id="metadata2413">
    <rdf:RDF>
      <cc:Work
         rdf:about="">
        <dc:format>image/svg+xml</dc:format>
        <dc:type
           rdf:resource="http://purl.org/dc/dcmitype/StillImage" />
        <dc:title></dc:title>
      </cc:Work>
    </rdf:RDF>
  </metadata>
  <g
     transform="translate(-132.62405,21.022312)"
     id="layer1"
     inkscape:groupmode="layer"
     inkscape:label="Layer 1">
    <g
       id="g2352"
       inkscape:export-filename="C:\Users\darie\Desktop\Work\Romario\Slim Fit\SlimFit\src\assets\icon4.png"
       inkscape:export-xdpi="96"
       inkscape:export-ydpi="96"
       transform="matrix(3.2755769,0,0,3.2755769,-188.75322,-158.11331)"
       style="stroke-width:0.30529">
      <rect
         style="opacity:1;fill:#ffffff;fill-opacity:1;stroke:none;stroke-width:0.161549;stroke-linecap:round;stroke-linejoin:miter;stroke-miterlimit:4;stroke-dasharray:none;paint-order:fill markers stroke"
         id="rect2334"
         width="26.072033"
         height="26.072033"
         x="98.113182"
         y="41.852474" />
      <path
         inkscape:export-ydpi="96"
         inkscape:export-xdpi="96"
         inkscape:export-filename="C:\Users\darie\Desktop\Work\Romario\Slim Fit\SlimFit\src\assets\icon4.png"
         d="m 111.14872,43.557814 c -0.26801,1.29e-4 -0.53507,0.09683 -0.74569,0.289904 l -0.004,0.0021 -0.002,0.0021 c -2.03681,1.985246 -4.45262,2.905765 -7.69978,2.905765 -0.59423,0 -1.07642,0.48168 -1.07642,1.075905 0,0.554707 -9.9e-4,1.104492 -0.0274,1.677416 v 0.0041 0.0041 c -0.0529,2.773309 -0.12627,6.099421 1.00459,9.161198 1.13088,3.061779 3.49229,5.843722 8.19433,7.464666 l 0.0191,0.007 0.33796,0.0672 0.339,-0.0672 0.0186,-0.007 c 4.68866,-1.620947 7.04976,-4.395449 8.18399,-7.453813 1.13423,-3.058366 1.06776,-6.385108 1.01492,-9.172051 v -0.0083 c -0.0259,-0.572924 -0.0269,-1.122709 -0.0269,-1.677416 0,-0.594233 -0.48219,-1.075905 -1.07642,-1.075905 -3.24715,0 -5.66297,-0.920519 -7.69978,-2.905765 l -0.002,-0.0021 -0.004,-0.0021 c -0.21063,-0.193069 -0.47769,-0.289775 -0.74569,-0.289904 z m 5.1e-4,1.064016 c 0.18407,0 0.36797,0.06759 0.51522,0.202573 1.93881,1.889734 4.2703,2.773474 7.33805,2.773474 0.41721,0 0.73639,0.319175 0.73639,0.736388 0,0.515382 -2.2e-4,1.030523 0.0243,1.570448 h 5.1e-4 c 0.0982,5.178364 0.22072,12.221736 -8.36899,15.191325 l -0.24547,0.0491 -0.24546,-0.0491 c -8.61424,-2.969589 -8.4672,-10.037501 -8.369,-15.191325 0.0245,-0.539925 0.0248,-1.055066 0.0248,-1.570448 0,-0.417213 0.31917,-0.736388 0.73638,-0.736388 3.06776,0 5.39924,-0.88374 7.33806,-2.773474 0.14725,-0.134982 0.33115,-0.202573 0.51521,-0.202573 z m 0,0.873334 c -0.1684,0 -0.33708,0.06202 -0.4718,0.185518 -1.77383,1.728917 -3.90661,2.537312 -6.71329,2.537312 -0.38171,0 -0.67386,0.291634 -0.67386,0.673343 0,0.471525 1.8e-4,0.943147 -0.0222,1.437122 -0.0898,4.715229 -0.22426,11.182024 7.6569,13.898893 l 0.22427,0.04444 0.22479,-0.04444 c 7.85872,-2.716869 7.7462,-9.161209 7.65638,-13.898893 -0.0224,-0.493975 -0.0227,-0.965597 -0.0227,-1.437122 0,-0.381709 -0.29165,-0.673343 -0.67335,-0.673343 -2.80669,0 -4.93998,-0.808395 -6.7138,-2.537312 -0.13472,-0.123494 -0.30289,-0.185518 -0.47129,-0.185518 z m 2.69441,6.472473 0.92036,0.988052 -4.15375,3.90674 c -0.13472,0.112268 -0.29166,0.179832 -0.47129,0.179832 h -0.0227 c -0.17963,0 -0.35902,-0.09008 -0.47129,-0.224793 l -2.08824,-2.312519 1.01027,-0.898136 1.63918,1.818492 z"
         style="color:#000000;font-style:normal;font-variant:normal;font-weight:normal;font-stretch:normal;font-size:medium;line-height:normal;font-family:sans-serif;font-variant-ligatures:normal;font-variant-position:normal;font-variant-caps:normal;font-variant-numeric:normal;font-variant-alternates:normal;font-variant-east-asian:normal;font-feature-settings:normal;font-variation-settings:normal;text-indent:0;text-align:start;text-decoration:none;text-decoration-line:none;text-decoration-style:solid;text-decoration-color:#000000;letter-spacing:normal;word-spacing:normal;text-transform:none;writing-mode:lr-tb;direction:ltr;text-orientation:mixed;dominant-baseline:auto;baseline-shift:baseline;text-anchor:start;white-space:normal;shape-padding:0;shape-margin:0;inline-size:0;clip-rule:nonzero;display:inline;overflow:visible;visibility:visible;isolation:auto;mix-blend-mode:normal;color-interpolation:sRGB;color-interpolation-filters:linearRGB;solid-color:#000000;solid-opacity:1;vector-effect:none;fill:url(#linearGradient2294);fill-opacity:1;fill-rule:nonzero;stroke:none;stroke-width:0.173877;stroke-linecap:butt;stroke-linejoin:miter;stroke-miterlimit:4;stroke-dasharray:none;stroke-dashoffset:0;stroke-opacity:1;color-rendering:auto;image-rendering:auto;shape-rendering:auto;text-rendering:auto;enable-background:accumulate;stop-color:#000000"
         id="path2029" />
    </g>
  </g>
</svg>
