<?xml version="1.0" encoding="UTF-8" standalone="no"?>
<svg
   xmlns:dc="http://purl.org/dc/elements/1.1/"
   xmlns:cc="http://creativecommons.org/ns#"
   xmlns:rdf="http://www.w3.org/1999/02/22-rdf-syntax-ns#"
   xmlns:svg="http://www.w3.org/2000/svg"
   xmlns="http://www.w3.org/2000/svg"
   xmlns:xlink="http://www.w3.org/1999/xlink"
   xmlns:sodipodi="http://sodipodi.sourceforge.net/DTD/sodipodi-0.dtd"
   xmlns:inkscape="http://www.inkscape.org/namespaces/inkscape"
   sodipodi:docname="icon1.svg"
   inkscape:version="1.0 (4035a4fb49, 2020-05-01)"
   id="svg2416"
   version="1.1"
   viewBox="0 0 85.400948 85.400948"
   height="85.400948mm"
   width="85.400948mm">
  <defs
     id="defs2410">
    <linearGradient
       inkscape:collect="always"
       id="linearGradient2258">
      <stop
         style="stop-color:#ca5f7a;stop-opacity:1"
         offset="0"
         id="stop2254" />
      <stop
         style="stop-color:#ecc4ce;stop-opacity:1"
         offset="1"
         id="stop2256" />
    </linearGradient>
    <linearGradient
       inkscape:collect="always"
       xlink:href="#linearGradient2258"
       id="linearGradient2260"
       x1="75.136726"
       y1="367.45035"
       x2="157.59912"
       y2="318.56934"
       gradientUnits="userSpaceOnUse"
       gradientTransform="matrix(0.61952896,0,0,0.61952896,-138.35949,-251.27436)" />
  </defs>
  <sodipodi:namedview
     inkscape:window-maximized="0"
     inkscape:window-y="0"
     inkscape:window-x="1673"
     inkscape:window-height="1018"
     inkscape:window-width="958"
     fit-margin-bottom="0"
     fit-margin-right="0"
     fit-margin-left="0"
     fit-margin-top="0"
     showgrid="false"
     inkscape:document-rotation="0"
     inkscape:current-layer="layer1"
     inkscape:document-units="mm"
     inkscape:cy="501.74077"
     inkscape:cx="73.720495"
     inkscape:zoom="0.15670455"
     inkscape:pageshadow="2"
     inkscape:pageopacity="0.0"
     borderopacity="1.0"
     bordercolor="#666666"
     pagecolor="#ffffff"
     id="base" />
  <metadata
     id="metadata2413">
    <rdf:RDF>
      <cc:Work
         rdf:about="">
        <dc:format>image/svg+xml</dc:format>
        <dc:type
           rdf:resource="http://purl.org/dc/dcmitype/StillImage" />
        <dc:title></dc:title>
      </cc:Work>
    </rdf:RDF>
  </metadata>
  <g
     transform="translate(-86.328118,-15.41442)"
     id="layer1"
     inkscape:groupmode="layer"
     inkscape:label="Layer 1">
    <g
       id="g2377"
       transform="matrix(1.3989064,0,0,1.3989064,216.29501,116.92739)"
       style="stroke-width:0.714844"
       inkscape:export-filename="C:\Users\darie\Desktop\Work\Romario\Slim Fit\SlimFit\src\assets\icon1.png"
       inkscape:export-xdpi="96"
       inkscape:export-ydpi="96">
      <rect
         y="-72.565948"
         x="-92.906067"
         height="61.048363"
         width="61.048363"
         id="rect2326"
         style="fill:#ffffff;fill-opacity:1;stroke:none;stroke-width:0.378271;stroke-linecap:round;stroke-linejoin:miter;stroke-miterlimit:4;stroke-dasharray:none;paint-order:fill markers stroke" />
      <path
         inkscape:export-ydpi="96"
         inkscape:export-xdpi="96"
         inkscape:export-filename="C:\Users\darie\Desktop\Work\Romario\Slim Fit\SlimFit\src\assets\icon5.png"
         d="m -67.598875,-60.459444 a 0.7173475,0.7173475 0 0 0 -0.717544,0.717537 6.3111036,6.3111036 0 0 0 3.258579,5.518894 c -5.981843,0.559646 -11.528707,2.99079 -15.83913,6.987847 -4.891473,4.535188 -7.613967,10.549391 -7.688451,16.959606 h -0.533618 a 0.71754216,0.71754216 0 1 0 0,1.435084 h 53.474304 a 0.71754216,0.71754216 0 0 0 0,-1.435084 h -0.534828 c -0.0746,-6.410335 -2.796975,-12.423935 -7.688453,-16.959606 -4.160614,-3.857775 -9.471558,-6.25741 -15.214758,-6.922504 a 6.3119407,6.3119407 0 0 0 3.380787,-5.584237 0.7173475,0.7173475 0 0 0 -0.717537,-0.717537 z m -6.385261,12.914515 a 0.71738225,0.71738225 0 0 1 0.256521,1.384262 c -2.733812,1.088816 -4.98072,3.040538 -6.327182,5.495898 a 0.71751601,0.71751601 0 0 1 -1.258419,-0.689709 h 0.0012 c 1.50643,-2.746842 4.01092,-4.927673 7.053194,-6.139633 a 0.71738225,0.71738225 0 0 1 0.274675,-0.05081 z m -17.091501,22.485754 a 0.71754155,0.71754155 0 0 0 0,1.435082 h 57.387498 a 0.71754155,0.71754155 0 0 0 0,-1.435082 z"
         style="fill:url(#linearGradient2260);fill-opacity:1;stroke-width:0.0364998"
         id="path1810" />
    </g>
  </g>
</svg>
