<?xml version="1.0" encoding="UTF-8" standalone="no"?>
<svg
   xmlns:dc="http://purl.org/dc/elements/1.1/"
   xmlns:cc="http://creativecommons.org/ns#"
   xmlns:rdf="http://www.w3.org/1999/02/22-rdf-syntax-ns#"
   xmlns:svg="http://www.w3.org/2000/svg"
   xmlns="http://www.w3.org/2000/svg"
   xmlns:xlink="http://www.w3.org/1999/xlink"
   xmlns:sodipodi="http://sodipodi.sourceforge.net/DTD/sodipodi-0.dtd"
   xmlns:inkscape="http://www.inkscape.org/namespaces/inkscape"
   sodipodi:docname="seal2.svg"
   inkscape:version="1.0 (4035a4fb49, 2020-05-01)"
   id="svg2416"
   version="1.1"
   viewBox="0 0 85.400948 85.400948"
   height="85.400948mm"
   width="85.400948mm">
  <defs
     id="defs2410">
    <linearGradient
       inkscape:collect="always"
       id="linearGradient2258">
      <stop
         style="stop-color:#ca5f7a;stop-opacity:1"
         offset="0"
         id="stop2254" />
      <stop
         style="stop-color:#ecc4ce;stop-opacity:1"
         offset="1"
         id="stop2256" />
    </linearGradient>
    <linearGradient
       inkscape:collect="always"
       xlink:href="#linearGradient2258"
       id="linearGradient2275"
       x1="209.47902"
       y1="368.09149"
       x2="266.39688"
       y2="311.04205"
       gradientUnits="userSpaceOnUse"
       gradientTransform="matrix(0.26458333,0,0,0.26458333,-11.565066,-34.817993)" />
  </defs>
  <sodipodi:namedview
     inkscape:window-maximized="0"
     inkscape:window-y="0"
     inkscape:window-x="1673"
     inkscape:window-height="1018"
     inkscape:window-width="958"
     fit-margin-bottom="0"
     fit-margin-right="0"
     fit-margin-left="0"
     fit-margin-top="0"
     showgrid="false"
     inkscape:document-rotation="0"
     inkscape:current-layer="layer1"
     inkscape:document-units="mm"
     inkscape:cy="314.82743"
     inkscape:cx="212.26038"
     inkscape:zoom="0.15670455"
     inkscape:pageshadow="2"
     inkscape:pageopacity="0.0"
     borderopacity="1.0"
     bordercolor="#666666"
     pagecolor="#ffffff"
     id="base" />
  <metadata
     id="metadata2413">
    <rdf:RDF>
      <cc:Work
         rdf:about="">
        <dc:format>image/svg+xml</dc:format>
        <dc:type
           rdf:resource="http://purl.org/dc/dcmitype/StillImage" />
        <dc:title></dc:title>
      </cc:Work>
    </rdf:RDF>
  </metadata>
  <g
     transform="translate(-49.672774,-64.868576)"
     id="layer1"
     inkscape:groupmode="layer"
     inkscape:label="Layer 1">
    <g
       id="g2344"
       inkscape:export-filename="C:\Users\darie\Desktop\Work\Romario\Slim Fit\SlimFit\src\assets\icon2.png"
       inkscape:export-xdpi="96"
       inkscape:export-ydpi="96"
       transform="matrix(3.2755769,0,0,3.2755769,-76.181257,-72.222422)"
       style="stroke-width:0.30529">
      <rect
         style="opacity:1;fill:#ffffff;fill-opacity:1;stroke:none;stroke-width:0.161549;stroke-linecap:round;stroke-linejoin:miter;stroke-miterlimit:4;stroke-dasharray:none;paint-order:fill markers stroke"
         id="rect2330"
         width="26.072033"
         height="26.072033"
         x="38.421944"
         y="41.852474" />
      <path
         inkscape:export-ydpi="96"
         inkscape:export-xdpi="96"
         inkscape:export-filename="C:\Users\darie\Desktop\Work\Romario\Slim Fit\SlimFit\src\assets\icon2.png"
         d="m 56.130543,45.368842 c -0.282033,0 -0.564208,0.107905 -0.780315,0.324012 -0.432212,0.432212 -0.43221,1.128416 0,1.560629 l 3.742926,3.742406 c 0.43221,0.432211 1.127897,0.432213 1.56011,0 0.432213,-0.432212 0.432213,-1.1279 0,-1.560113 l -3.742407,-3.742922 c -0.216106,-0.216107 -0.498281,-0.324012 -0.780314,-0.324012 z m -3.820438,0.798918 c -0.273404,0 -0.547047,0.104695 -0.756544,0.314192 -0.418994,0.418994 -0.418994,1.093573 0,1.51257 l 6.806821,6.806819 c 0.418995,0.418997 1.094092,0.418994 1.513086,0 0.418994,-0.418994 0.418994,-1.093573 0,-1.51257 L 53.066647,46.481952 C 52.85715,46.272455 52.58351,46.16776 52.310105,46.16776 Z m 1.081588,5.177461 -5.47977,5.479251 1.618507,1.618507 5.479769,-5.479251 z m -9.583912,3.324863 c -0.273405,-3e-6 -0.546529,0.104696 -0.756026,0.314193 -0.418994,0.418994 -0.418989,1.093578 0,1.512567 l 6.806819,6.806822 c 0.418997,0.418994 1.093576,0.418994 1.51257,0 0.418994,-0.418995 0.418997,-1.093574 0,-1.51257 l -6.806819,-6.806819 c -0.209494,-0.209495 -0.483137,-0.314193 -0.756544,-0.314193 z m -0.765329,3.78633 c -0.28203,3e-6 -0.563689,0.108421 -0.779796,0.32453 -0.432212,0.432213 -0.432212,1.127898 0,1.560111 l 3.742407,3.742922 c 0.432218,0.432222 1.128416,0.432212 1.560629,0 0.432213,-0.432212 0.432218,-1.128408 0,-1.560626 l -3.742925,-3.742407 c -0.216104,-0.216106 -0.498282,-0.32453 -0.780315,-0.32453 z"
         style="opacity:1;fill:url(#linearGradient2275);fill-opacity:1;stroke:none;stroke-width:0.161549;stroke-linecap:round;stroke-linejoin:miter;stroke-miterlimit:4;stroke-dasharray:none;paint-order:fill markers stroke"
         id="rect2185" />
    </g>
  </g>
</svg>
